<mxfile host="65bd71144e" pages="2">
    <diagram name="Page-1" id="mFMqTeZg21dW_7w09lhQ">
        <mxGraphModel dx="554" dy="973" grid="1" gridSize="10" guides="1" tooltips="1" connect="1" arrows="1" fold="1" page="1" pageScale="1" pageWidth="850" pageHeight="1100" math="0" shadow="0">
            <root>
                <mxCell id="0"/>
                <mxCell id="1" parent="0"/>
                <mxCell id="2" style="edgeStyle=none;html=1;entryX=0;entryY=0.5;entryDx=0;entryDy=0;" parent="1" source="jN3FsYwqVG-rT1F5JYBM-1" target="jN3FsYwqVG-rT1F5JYBM-5" edge="1">
                    <mxGeometry relative="1" as="geometry">
                        <mxPoint x="400" y="350" as="targetPoint"/>
                    </mxGeometry>
                </mxCell>
                <mxCell id="3" value="Request player&lt;br&gt;data" style="edgeLabel;html=1;align=center;verticalAlign=middle;resizable=0;points=[];" parent="2" vertex="1" connectable="0">
                    <mxGeometry x="0.275" y="2" relative="1" as="geometry">
                        <mxPoint x="-23" y="2" as="offset"/>
                    </mxGeometry>
                </mxCell>
                <mxCell id="12" style="edgeStyle=none;html=1;entryX=0.5;entryY=1;entryDx=0;entryDy=0;" edge="1" parent="1" source="jN3FsYwqVG-rT1F5JYBM-1" target="5">
                    <mxGeometry relative="1" as="geometry"/>
                </mxCell>
                <mxCell id="13" value="Cache / Restore requests" style="edgeLabel;html=1;align=center;verticalAlign=middle;resizable=0;points=[];" vertex="1" connectable="0" parent="12">
                    <mxGeometry x="0.51" y="2" relative="1" as="geometry">
                        <mxPoint x="2" y="36" as="offset"/>
                    </mxGeometry>
                </mxCell>
                <mxCell id="jN3FsYwqVG-rT1F5JYBM-1" value="PlayerInterface" style="rounded=0;whiteSpace=wrap;html=1;" parent="1" vertex="1">
                    <mxGeometry x="200" y="320" width="120" height="60" as="geometry"/>
                </mxCell>
                <mxCell id="jN3FsYwqVG-rT1F5JYBM-3" value="LaxDB&lt;br&gt;[Postgres]" style="shape=cylinder3;whiteSpace=wrap;html=1;boundedLbl=1;backgroundOutline=1;size=15;" parent="1" vertex="1">
                    <mxGeometry x="710" y="300" width="80" height="100" as="geometry"/>
                </mxCell>
                <mxCell id="10" style="edgeStyle=none;html=1;entryX=0;entryY=0.5;entryDx=0;entryDy=0;entryPerimeter=0;" edge="1" parent="1" source="jN3FsYwqVG-rT1F5JYBM-5" target="jN3FsYwqVG-rT1F5JYBM-3">
                    <mxGeometry relative="1" as="geometry"/>
                </mxCell>
                <mxCell id="11" value="Persist / Restore data" style="edgeLabel;html=1;align=center;verticalAlign=middle;resizable=0;points=[];" vertex="1" connectable="0" parent="10">
                    <mxGeometry x="-0.2238" y="-1" relative="1" as="geometry">
                        <mxPoint x="6" y="-1" as="offset"/>
                    </mxGeometry>
                </mxCell>
                <mxCell id="jN3FsYwqVG-rT1F5JYBM-5" value="PlayerDataService" style="rounded=0;whiteSpace=wrap;html=1;" parent="1" vertex="1">
                    <mxGeometry x="450" y="320" width="120" height="60" as="geometry"/>
                </mxCell>
                <mxCell id="jN3FsYwqVG-rT1F5JYBM-13" style="edgeStyle=orthogonalEdgeStyle;rounded=0;orthogonalLoop=1;jettySize=auto;html=1;entryX=0;entryY=0.5;entryDx=0;entryDy=0;" parent="1" source="jN3FsYwqVG-rT1F5JYBM-10" target="jN3FsYwqVG-rT1F5JYBM-1" edge="1">
                    <mxGeometry relative="1" as="geometry"/>
                </mxCell>
                <mxCell id="jN3FsYwqVG-rT1F5JYBM-10" value="User" style="shape=umlActor;verticalLabelPosition=bottom;verticalAlign=top;html=1;outlineConnect=0;" parent="1" vertex="1">
                    <mxGeometry x="30" y="320" width="30" height="60" as="geometry"/>
                </mxCell>
                <mxCell id="jN3FsYwqVG-rT1F5JYBM-11" value="" style="group" parent="1" vertex="1" connectable="0">
                    <mxGeometry x="320" y="660" width="170" height="130" as="geometry"/>
                </mxCell>
                <mxCell id="jN3FsYwqVG-rT1F5JYBM-2" value="" style="shape=process;whiteSpace=wrap;html=1;backgroundOutline=1;" parent="jN3FsYwqVG-rT1F5JYBM-11" vertex="1">
                    <mxGeometry width="170" height="130" as="geometry"/>
                </mxCell>
                <mxCell id="jN3FsYwqVG-rT1F5JYBM-7" value="RMQ" style="text;html=1;align=center;verticalAlign=middle;resizable=0;points=[];autosize=1;strokeColor=none;fillColor=none;" parent="jN3FsYwqVG-rT1F5JYBM-11" vertex="1">
                    <mxGeometry x="60" width="50" height="30" as="geometry"/>
                </mxCell>
                <mxCell id="jN3FsYwqVG-rT1F5JYBM-8" value="players" style="rounded=0;whiteSpace=wrap;html=1;" parent="jN3FsYwqVG-rT1F5JYBM-11" vertex="1">
                    <mxGeometry x="30" y="30" width="110" height="40" as="geometry"/>
                </mxCell>
                <mxCell id="jN3FsYwqVG-rT1F5JYBM-9" value="statistics" style="whiteSpace=wrap;html=1;" parent="jN3FsYwqVG-rT1F5JYBM-11" vertex="1">
                    <mxGeometry x="30" y="80" width="110" height="40" as="geometry"/>
                </mxCell>
                <mxCell id="5" value="Redis" style="shape=internalStorage;whiteSpace=wrap;html=1;backgroundOutline=1;" vertex="1" parent="1">
                    <mxGeometry x="220" y="140" width="80" height="80" as="geometry"/>
                </mxCell>
                <mxCell id="7" style="edgeStyle=none;html=1;entryX=0;entryY=0.5;entryDx=0;entryDy=0;" edge="1" parent="1" source="6" target="jN3FsYwqVG-rT1F5JYBM-8">
                    <mxGeometry relative="1" as="geometry">
                        <Array as="points">
                            <mxPoint x="260" y="710"/>
                        </Array>
                    </mxGeometry>
                </mxCell>
                <mxCell id="8" style="edgeStyle=none;html=1;entryX=0;entryY=1;entryDx=0;entryDy=0;" edge="1" parent="1" source="6" target="jN3FsYwqVG-rT1F5JYBM-5">
                    <mxGeometry relative="1" as="geometry">
                        <Array as="points">
                            <mxPoint x="400" y="540"/>
                            <mxPoint x="400" y="380"/>
                        </Array>
                    </mxGeometry>
                </mxCell>
                <mxCell id="9" value="Create / Update Player" style="edgeLabel;html=1;align=center;verticalAlign=middle;resizable=0;points=[];" vertex="1" connectable="0" parent="8">
                    <mxGeometry x="-0.0138" y="3" relative="1" as="geometry">
                        <mxPoint as="offset"/>
                    </mxGeometry>
                </mxCell>
                <mxCell id="6" value="EventConsumer" style="rounded=0;whiteSpace=wrap;html=1;" vertex="1" parent="1">
                    <mxGeometry x="200" y="510" width="120" height="60" as="geometry"/>
                </mxCell>
                <mxCell id="14" value="Admin" style="shape=umlActor;verticalLabelPosition=bottom;verticalAlign=top;html=1;outlineConnect=0;" vertex="1" parent="1">
                    <mxGeometry x="30" y="490" width="30" height="60" as="geometry"/>
                </mxCell>
                <mxCell id="15" value="Coach" style="shape=umlActor;verticalLabelPosition=bottom;verticalAlign=top;html=1;outlineConnect=0;" vertex="1" parent="1">
                    <mxGeometry x="30" y="610" width="30" height="60" as="geometry"/>
                </mxCell>
            </root>
        </mxGraphModel>
    </diagram>
    <diagram id="6KfaeffnY1STP9T5mcnP" name="Sequence">
        <mxGraphModel dx="665" dy="1168" grid="1" gridSize="10" guides="1" tooltips="1" connect="1" arrows="1" fold="1" page="1" pageScale="1" pageWidth="850" pageHeight="1100" math="0" shadow="0">
            <root>
                <mxCell id="0"/>
                <mxCell id="1" parent="0"/>
            </root>
        </mxGraphModel>
    </diagram>
</mxfile>